<svg xmlns="http://www.w3.org/2000/svg" id="Vector_layer" data-name="Vector layer" viewBox="0 0 1024 1024"><defs><style>.cls-1{fill:#fff}.cls-2{fill:#ffa0ac}.cls-3{fill:#ffc0c8}</style></defs><path d="M802.51 784.68c-32.6-7.5-56.93-36.92-56.93-72.06 0-40.82 32.82-73.91 73.31-73.91s73.31 33.09 73.31 73.91c0 35.14-24.33 64.55-56.93 72.06H802.5Zm-613.81-.51c-32.59-7.51-56.91-36.92-56.91-72.06 0-40.81 32.82-73.91 73.31-73.91s73.31 33.1 73.31 73.91c0 35.13-24.32 64.55-56.91 72.06h-32.8Z" style="fill:#ff808f"/><path d="M773.47 786.16H634.82c-.98-1.02-1.67-2.27-2.07-3.6-2.2-1.44-3.79-3.92-3.91-7.43v-48.49h-2.63c-11.93-.39-11.89-17.72 0-18.1h2.63v-9.56h-12.18c-7.46-.25-10.24-7.11-8.37-12.32h-8.67c-6.96.54-13.65-.77-14.17-9.05 0-.11.01-.21.03-.32-.75-1.27-1.21-2.83-1.27-4.67v-79.56c-.29-5.12 3.9-9.63 9.05-9.62 1.21 0 2.37.25 3.43.69h33.13c1.76.06 3.27.48 4.51 1.18 5.32-2.11 12.58.79 12.61 8.55v27.04h10.03v-26.49c0-4.93 4.12-9.05 9.05-9.05.32 0 .63.02.94.05 1.27-.75 2.83-1.22 4.68-1.28h73.66c1.85.06 3.4.53 4.68 1.28.31-.03.62-.05.94-.05 4.93 0 9.05 4.12 9.05 9.05v26.49h10.02v-27.04c.03-7.76 7.3-10.66 12.61-8.55 1.24-.69 2.74-1.12 4.51-1.18h33.13a8.58 8.58 0 0 1 3.43-.69c5.15-.01 9.34 4.49 9.05 9.62v79.56c-.06 1.84-.52 3.39-1.27 4.67l.03.32c-.51 8.28-7.2 9.59-14.17 9.05h-8.67c1.87 5.21-.92 12.07-8.37 12.32h-12.18v9.56h2.63c11.89.38 11.93 17.71 0 18.1h-2.63v48.49c-.06 2.03-.63 3.72-1.51 5.05-.08 2.2-.9 4.36-2.45 5.98h-10.66Z" class="cls-2"/><path d="M629.23 602.4c-10.36-.02-20.57-1.89-30.89-2.49-2.9-.06-5.69.75-8.53-.35-8.11-2.76-8.03-15.12.23-17.46 10.75-1.2 21.69 1.21 32.48 1.91 4.29.45 9.24-.54 12.64 2.72 5.88 5.05 1.91 15.88-5.93 15.67Z" class="cls-2"/><path d="M635.98 599.36c-12.07-.01-24.17-1.06-36.22-.42-20.29 3.97-19.88-17.9-6.13-17.78 8.16-.5 16.29-.93 24.46-.14 6.6.22 13.21 0 19.81.34 11.76 1.45 10.02 18.95-1.92 18Zm140.57 6.23c-4.08-1.51-6.58-6.09-5.65-10.37.35-3.4 1.01-7.13 3.85-9.36 5.19-3.95 12.12-1.78 18.09-1.57 8.79.89 17.62 1.19 26.4 2.11 11.8 1.67 9.98 18.89-1.92 18-9.96-1.02-19.97-1.4-29.93-2.45-2.1 3.6-6.96 5.21-10.84 3.64Zm-310.83 179.1H298.93c-.19-.83-.28-1.68-.25-2.53-1.11-3.42-.39-7.43 2.84-9.79 4.66-3.68 9.28-7.47 12.69-12.39 2.34-4.07.89-9.6-1.53-13.35-8.86-8.72-27.61-3.52-38.02.17-11.77 4.29-23.3 10.33-31.83 19.68-.76.99-1.55 1.95-2.35 2.91-.19.19-.38.39-.56.58-.43.46-.82.95-1.22 1.42-.25.26-.5.51-.77.75-1.13.99-2.27 1.99-3.42 2.96-1.34 1.13-2.63 2.3-3.94 3.46-.4.33-.81.66-1.22.98-.04.02-.07.04-.11.07-.41.23-.81.45-1.23.65-1.02.43-2.06.79-3.1 1.17 0 0 .02 0 .03-.01-1.03.37-2.06.72-3.1 1.06-.11-.05-.22-.1-.33-.16-5.67 1.81-15.56 1.61-22.52 1.42-2.31-.06-4.31-.13-5.72-.12-5.58-.03-10.55-4.31-10.29-10.08.24-5.18 4.75-8.72 7.65-12.6 2.6-3.44 4.78-7.24 6.55-11.17-5.24-.37-9.36 3.54-13.64 6-2.26 3.4-6.81 4.81-10.65 3.42-.77-.05-1.57-.19-2.4-.43-6.6-2.35-7.25-10.2-8.76-16.07-1.13-4.79-2.34-9.56-3.45-14.35-5.88-16.21-4.89-21.52 6.14-34.87 15.18-19.84 35.77-34.67 50.32-55.02 3.29-4.56 6.69-9.03 10.21-13.41 5.17-7.36 9.91-15.06 16.06-21.69 3.88-3.96 12.39-14.44 20.11-20.47-10.95-9.14-21.33-19.03-30.25-30.1-2.37-4.31-6.81-8.6-4.79-13.92.51-1.48 1.41-2.77 2.56-3.79 1.31-2.56 3.83-4.46 7.46-4.5 8.62.26 16.5 4.38 24.53 7.09 15.39 5.14 29.81 12.71 43.52 21.37 11.3 1.29 22.71.25 33.99 1.8 11.1 1.59 22.44 2.47 33 6.52 3.42 1.55 5.04 4.26 5.31 7.1.44.92.83 1.94 1.17 3.07 8.97 18.96 11.29 40.08 12.81 60.76.16 2.23.26 4.46.31 6.69.47-1.81.9-3.62 1.32-5.44 2.42-12.59 2.43-25.44 2.18-38.22a9.903 9.903 0 0 1-.23-3.16c-.17-3.34 1.33-6.75 4.67-8.39 8.17-3.99 14.99 4.34 19.57 10.07 3.81 4.62 7.93 9.3 9.87 15.06 2.61 12.01-.14 24.55.13 36.74-.4 11.04-.51 22.17-1.35 33.22 2.87-5.01 5.96-10.23 7.83-14.77 2.94-6.84 4.95-13.98 6.97-21.13 3.33-9.47 15.62-7.29 17.45.52 1.29.91 2.27 2.12 2.92 3.49 1.6 1.59 3.07 3.25 4.32 5.2 4.38 7.24 8.74 14.71 11.05 22.89.52 2.72 0 5-1.15 6.78-8.23 15.52-14.85 32.08-22.54 47.95-3.68 8-7.65 15.84-11.68 23.67-.95 1.89-1.89 3.79-2.84 5.69 6.33-4.18 12.16-9.16 17.55-14.41 3.94-3.87 8.1-7.53 11.73-11.71 3.65-5.29 12.06-7.42 16.58-2.05 4.03 4.98 3.93 11.69 5.49 17.63 2.5 8.08 1.08 16.35-2.18 24-.4 1.57-1.01 2.88-1.77 3.95 0 .72-.07 1.43-.23 2.12h-20.69Z" class="cls-2"/><path d="M344.94 784.69c-.1-.54-.16-1.1-.17-1.7 0-5.32-.09-10.65-.4-15.96-1.02-29.44-3.98-59.01-13.76-86.98-1.25-3.43-2.51-6.87-4.32-10.04-.61-.75-1.11-1.6-1.46-2.51-.42 0-.86-.01-1.31-.06h-26.33c-1.46-.05-2.74-.35-3.84-.84-4.82.65-10.16-2.3-10.37-8.85v-18.57c.22-6.89 6.11-9.79 11.1-8.72 2.77-.64 6.03-.54 9.18-.44 1.8.06 3.58.12 5.2.04-1.83-1.67-2.99-4.06-2.99-6.68 0-4.93 4.12-9.05 9.05-9.05h13.88c-.96-1.37-1.56-3.11-1.63-5.23v-31.36c-7.93-3.51-6.66-16.93 3.81-17.27h13.84c-.16-1.1-.31-2.2-.46-3.3-1.24-9.92-2.36-19.93-5.94-29.34-4.83-13.2-12.12-25.45-19.21-37.54-8.29-11.3-17.72-22.05-28.67-30.83-5.18-5.33-15.14-7.75-15.58-16.32 0-.34.02-.68.06-1.01-1.47-4.99 1.18-11.09 7.73-11.78 4.78.18 9.22 2.25 13.91 3.19 6.43 1.76 12.85 3.51 19.28 5.26.22-1.42.87-2.94 2.07-4.57 6.07-6.16 11.23-2.63 16.19 1.59 3.55-21.91 17.59-42.82 38.5-51.2 3.88-1.69 7.95-2.79 12.1-3.42l-.32-.35c1.76-.19 3.53-.32 5.3-.44 2.4-.16 4.8-.29 7.2-.38h-.31c.16 0 .31-.01.47-.01h.04c12.82-.43 25.68.15 38.45 1.33h.12c.05 0 .09 0 .14.01 3.75.37 7.48.8 11.17 1.58.31.07.61.14.91.21 1.26.3 2.52.63 3.77.94.11.04.22.09.32.14 20.91 8.39 34.95 29.29 38.5 51.2 4.97-4.22 10.13-7.75 16.19-1.59 1.2 1.63 1.85 3.15 2.07 4.57 6.43-1.75 12.85-3.5 19.28-5.26 4.68-.93 9.13-3.01 13.91-3.19 6.54.69 9.19 6.79 7.73 11.78.04.33.06.67.06 1.01-.44 8.57-10.4 10.98-15.58 16.32-10.95 8.77-20.39 19.53-28.67 30.83-7.1 12.09-14.38 24.34-19.21 37.55-3.59 9.41-4.7 19.42-5.94 29.34-.15 1.1-.31 2.2-.46 3.3h13.84c10.47.34 11.74 13.76 3.8 17.27v31.36c-.07 2.12-.67 3.86-1.63 5.23h13.89c4.93 0 9.05 4.12 9.05 9.05 0 2.62-1.16 5-2.99 6.67 1.62.08 3.39.02 5.19-.04 3.16-.1 6.42-.2 9.19.44 5-1.07 10.87 1.83 11.1 8.71v18.57c-.21 6.55-5.54 9.5-10.37 8.85-1.1.49-2.38.8-3.84.84h-26.33c-.45.04-.89.06-1.31.06-.35.91-.84 1.76-1.46 2.51-1.81 3.17-3.08 6.61-4.32 10.04-9.78 27.97-12.74 57.54-13.76 86.98-.31 5.31-.39 10.63-.4 15.96-.02.74-.1 1.44-.25 2.09h-134Z" class="cls-3"/><path d="M395.33 367.74c0-11.33 10.61-20.51 23.71-20.51s23.71 9.18 23.71 20.51-10.61 20.51-23.71 20.51-23.71-9.18-23.71-20.51Zm350.26 408.98v.05c0 .13 0 .27-.01.4v.02c0 .13-.02.26-.03.39-.26 2.87-1.77 5.63-4.55 7.09H537.08c-2.77-1.47-4.29-4.22-4.55-7.09l-.03-.39v-.02c0-.13-.01-.27-.01-.4v-.07c0-.15 0-.29.01-.44.17-3.9 2.67-7.69 7.51-8.45.11-.02.22-.03.32-.05.17-.03.35-.05.53-.06l.45-.03h16.7c-1.85-1.36-3.09-3.54-3.32-7.03 0-4.93 4.12-9.05 9.05-9.05h12.98c-.32-.93-.52-1.96-.56-3.11v-32.89h-1.31c-13.54 1.91-16.25-16.96-2.6-18.1H576c-3.6-5.63-6.59-11.62-9.86-17.44-19.93-34.28-29.4-76.13-19.48-115.09 8.74-29.1 35.92-57.03 61.52-72.57 6.38-3.63 12.39-7.83 18.88-11.25 3.5-2.59 8.48-3 11.97-.92 3.49-2.08 8.47-1.67 11.97.92 6.49 3.43 12.5 7.62 18.88 11.25 2.13 1.29 4.26 2.67 6.4 4.13-1.32 3.03-2.62 6.07-3.96 9.08l-12.12 27.42c-9.22 20.85-18.42 41.7-27.64 62.55-2.9 7.99-12.12 19.26-.92 24.85 1.4.52 2.67.76 3.81.76 7.26 0 9.68-9.56 12.52-15.68 8.89-20.13 17.8-40.27 26.69-60.4 5.49-12.38 10.94-24.79 16.42-37.19 18.03 15.57 33.99 36.01 40.32 57.05 9.92 38.96.45 80.81-19.48 115.09-3.27 5.83-6.26 11.81-9.86 17.44h3.75c13.65 1.14 10.94 20-2.6 18.1h-1.31v32.89c-.04 1.15-.23 2.19-.56 3.11h12.99c4.93 0 9.05 4.12 9.05 9.05-.23 3.48-1.47 5.67-3.32 7.03h16.69c.15 0 .3.01.45.03.18 0 .36.03.53.06.11.01.22.03.32.05 4.84.76 7.34 4.55 7.51 8.45 0 .15.01.29.01.44v.02Z" class="cls-3"/><path d="M620.42 468.03c0-8.13 7.82-14.73 17.45-14.73s17.45 6.59 17.45 14.73-7.82 14.73-17.45 14.73-17.45-6.59-17.45-14.73Z" class="cls-3"/><path d="m304.6 711.7.03-.51h.79c-.26.19-.53.36-.82.51Zm-122.29-.52h1.12l-.72.24c-.14-.08-.27-.16-.41-.24Zm86.52 107.65c.09 0 .17.01.25.02-.08 0-.17-.01-.25-.02Zm-.08 0h.08-.08Zm-.06-.01h-.07c.05 0 .09 0 .14.01h-.06Zm-.1-.01h.01-.02Zm0 0h-.02.02Z" style="fill:#ff808b"/><path d="M541.27 230.43c-6.42-5.57-15.26-6.73-23.46-6.94-6.39-.29-15.08 1.23-17.37-6.7-1.36-4.68 1.41-9.92 6.17-11.21 5.83-.8 11.17 0 16.95.14 10.92.56 22.24 4.17 30.34 11.74 8.26 8.58-3.8 20.99-12.63 12.97Zm42.06 193.28c-4.93 0-9.05-4.12-9.05-9.05v-51.6c-.37-7.2-.64-17.28 9.05-17.49 4.93 0 9.05 4.12 9.05 9.05v45.29c-.55 8.37 3.3 23.17-9.05 23.79Zm-133.19 2.11c4.93 0 9.05-4.12 9.05-9.05v-51.6c.37-7.2.64-17.28-9.05-17.49-4.93 0-9.05 4.12-9.05 9.05v45.29c.55 8.37-3.3 23.17 9.05 23.79Z" class="cls-1"/><path d="M448.57 784.69c-.09-1.33.14-2.69.63-3.89-.58-1.16-.94-2.55-1-4.14-.89-16.54-.84-33.2-3.67-49.57-2.62-12.52-7.83-24.53-15.5-34.66-.32-1.03-.5-2.01-.57-2.94h-28.32c-2.09 0-4.03-.74-5.57-1.97-2.57-1.34-4.52-3.97-4.65-7.87v-15.96c.07-2.2.72-3.99 1.73-5.37 2.86-8.82 15.86-5.33 23.55-5.98h1.24c-9.37-2.46-8.53-17.5 2.45-17.76h20.25c-1.68-1.48-2.83-3.71-2.9-6.67v-36.22c-7.16-2.81-7.24-13.63-.28-16.64-1.29-3.01-2.28-6.3-3.38-8.87-20.54-52.39-41.11-104.78-61.65-157.17a9.496 9.496 0 0 1-.48-5.25c-.93-4.96 1.95-10.67 8.73-10.84h4.95c.86-.11 1.74-.12 2.62 0h251.94c.88-.12 1.76-.11 2.62 0h4.95c6.78.17 9.66 5.88 8.73 10.85.33 1.7.18 3.52-.49 5.24-20.54 52.39-41.11 104.78-61.65 157.17-1.09 2.58-2.09 5.86-3.38 8.87 6.97 3.01 6.89 13.84-.28 16.65v36.22c-.07 2.96-1.22 5.19-2.9 6.67h20.25c10.98.26 11.81 15.3 2.45 17.76h1.24c7.69.65 20.69-2.85 23.55 5.98 1.01 1.39 1.66 3.18 1.73 5.37v15.96c-.13 3.9-2.07 6.52-4.64 7.87a8.92 8.92 0 0 1-5.59 1.98h-28.32c-.06.93-.25 1.91-.57 2.94-7.67 10.13-12.89 22.14-15.5 34.66-2.83 16.37-2.78 33.03-3.67 49.57-.14 4.06-2.26 6.74-4.99 8.03H448.56Zm50.2-494.21c-30.02-8.07-42.09-43.3-23.82-68.3 9.51-13.12 26.65-18.07 42.25-16.86 10.25.73 21.37 2.5 29.28 9.61 9.59.64 18.88 10.22 17.33 20.11-1.07 8.92-10.94 14.79-18.84 9.65-10.22-6.05-5.67-16.19-15.31-18.93-12.76-3.68-29.37-4.66-39.14 5.91-10.67 12.28-6.85 32.51 8.06 39.45 7.49 3.67 16.09 3.58 24.24 3.13 8.16-.6 18.06-3.09 19.12 8.3.37 4.28-4.27 8.97-7.97 8.98-11.7.92-23.73 2.16-35.2-1.05Z" class="cls-1"/><path d="M495.94 290.04c-11.1-1.2-19.18-9.76-26.62-16.77-5.11-5.25-10.48-10.97-11.61-18.51-1.23-8.77 1.89-17.93 6.35-25.41 4.41-6.76 10.75-12.14 17.63-16.26 3.06-1.67 9.18-4.62 14.8-6.36.17-.03.34-.06.52-.09 2.87-.36 5.75-.74 8.61-1.14 8.8 2.19 8.96 14.66.55 17.42-14.18 3.12-31.12 12.82-30.51 29.26 1.05 3.19 3.9 5.45 6.04 7.93 4.04 3.91 8.09 7.82 12.82 10.82 2.92 1.68 6.58 1.17 8.8 4.18 5.31 5.76.24 15.74-7.38 14.96Z" class="cls-1"/><path d="M473.59 342.56c-19.07-25.65-7.84-61.34 21.84-71.97 1.44 2.3 3.88 4.2 6.79 3.69.03 0 .05 0 .07.01 1.37 2.21 3.71 4.21 6.43 3.71 1.54 2.89 2.85 5.96 4.77 8.63-4.89.34-9.69 1.29-14.13 3.43-16.26 7.45-20.42 29.14-8.79 42.32 10.66 11.34 28.78 10.29 42.69 6.34 10.52-2.94 5.55-13.81 16.7-20.3 8.61-5.51 19.38.78 20.54 10.35 1.69 10.61-8.44 20.89-18.9 21.57-8.62 7.62-20.76 9.52-31.93 10.3-17.05 1.3-35.71-4.02-46.09-18.08Z" class="cls-1"/><path d="M545.94 333.71c-7 5.97-16.64 7.22-25.59 7.44-6.97.31-16.45-1.32-18.95 7.19-1.48 5.02 1.54 10.64 6.73 12.03 6.36.86 12.18 0 18.49-.15 11.91-.6 24.25-4.47 33.09-12.59 9.01-9.2-4.14-22.52-13.78-13.91Z" class="cls-1"/><path d="M503.53 359.98c-1.95-.27-3.92-.46-5.87-.73-.19-.03-.38-.07-.56-.1-6.14-1.87-12.82-5.03-16.15-6.82-7.49-4.43-14.42-10.19-19.23-17.45-4.87-8.02-8.26-17.84-6.92-27.25 1.23-8.09 7.09-14.23 12.66-19.86 7.78-7.22 16.21-15.96 27.57-17.8 1.48 2.56 3.98 4.88 7.19 4.31.02 0 .05.01.07.01 1.06 1.64 2.53 3.21 4.47 3.64.51 2.71-.1 5.61-2.22 7.88-2.43 3.23-6.42 2.68-9.6 4.48-5.16 3.22-9.57 7.42-13.98 11.61-2.34 2.65-5.45 5.08-6.59 8.5-.65 17.64 17.82 28.04 33.28 31.38 8.8 2.89 9.17 15.42.16 18.48-.24.09-.49.15-.76.21-1.18-.13-2.35-.33-3.52-.49Z" class="cls-1"/><path d="M519.29 291.28c-10.39-1.06-21.39-3.13-29.73-9.85-8.9-7.43-15.18-18.33-15.36-30.09-.2-13.37 5.96-26.28 15.19-35.74 3.02-3.11 7.01-6.72 11.59-6.72 4.93 0 9.05 4.12 9.05 9.05.23 6.33-6.11 7.86-9.33 12.06-7.14 8.22-11.78 21.25-5.24 31.1 5.32 9.36 16.38 11.47 26.28 12.26 11.71 1.79 9.45 19.25-2.46 17.94Z" class="cls-1"/><path d="M476.41 253.24c-4.46-1.89-6.84-7.36-4.82-11.86 1.92-4.25 4.01-8.44 6.91-12.12 10.21-12.8 32.69-26.14 49.27-20.83-.25-.12-.49-.25-.74-.37-.13-.04-.26-.07-.39-.11 9.97 3.82 6.3 18.73-4.35 17.42-1.89-.22-3.82.1-5.68.4-10.63 2.33-21.94 9.73-26.9 19.59-1.86 5.76-7.12 10.52-13.29 7.87ZM526.51 359c-20.62-2.32-43.57-12.54-50.36-33.7-4.01-13.48-3.1-29.06 3.89-41.41 1.2-2.02 2.54-3.95 4.11-5.7 3.1-5.21 11.29-5.83 14.92-.81 5.86 8.31-3.14 12.53-5.33 19.8-7.06 25.04 5.89 38.37 29.78 43.09 5.59 1.92 12.56-1.34 17.06 3.31 3.5 3.37 3.51 9.43 0 12.8-3.7 3.66-9.33 2.69-14.07 2.62Z" class="cls-1"/><path d="M459.19 385.11c-1.32-4.82 1.59-9.75 6.32-11.13 37.01-10.85 74.02-21.69 111.03-32.54 11.38-3.03 16.18 14.14 4.81 17.46-31.82 9.36-63.67 18.64-95.49 27.99-8.57 1.72-22.4 10.53-26.67-1.76Z" class="cls-1"/><path d="M574.28 387.23c1.32-4.82-1.59-9.75-6.32-11.13-37.01-10.85-74.02-21.69-111.03-32.54-11.38-3.03-16.18 14.14-4.81 17.46 31.82 9.36 63.67 18.64 95.49 27.99 8.57 1.72 22.4 10.53 26.67-1.76Z" class="cls-1"/><path d="M515.13 404.22c-18.72-.6-37.43-1.88-56.16-1.76-13.29 3.34-16.72-16.42-3.02-17.94 37.21-.71 74.47 4.09 111.69 1.39 2.45-.1 4.77.49 6.67 2.1 6.06 4.72 2.78 15.59-5 15.93-18.04 1.18-36.12 1.07-54.17.28Z" class="cls-1"/><path d="M528.35 400.81c-16.11-2.44-32.08-6.51-48.46-6.57-1.83.12-3.68.14-5.47.55-1.74 1.51-4.04 2.39-6.39 2.29-6.85-.06-11.08-8.61-7.16-14.14-4.39-2.3-7.76-6.8-7.39-11.95-1.01-3.18-.24-6.77 1.91-9.31 8.75-8.82 21.03.44 30.22 3.86 19.48 7.97 40.93 6.9 61.13 2.46 4.28-6.46 12.4-11.7 20.36-10.63 11.41 2.53 16.59 8.81 13.18 20.6.62 1.31 1.22 2.63 1.77 3.97 3.54 8.78-8.29 16.4-14.82 9.59-3.73.26-7.48-1.64-9.36-4.85-2.05-.04-4.1-.46-5.94-1.32-3.91.76-7.82 1.53-11.75 2.19 3.99 7.93-3.73 15.26-11.82 13.26Z" class="cls-1"/></svg>